<svg xmlns="http://www.w3.org/2000/svg" width="1200" height="380" viewBox="0 0 1200 380" role="img" aria-labelledby="title desc"><title id="title">Sijan Regmi — Physics, code, discovery</title><desc id="desc">Particle physicist working in scientific computing and machine learning. Abstract particle tracks and detector rings.</desc><defs><linearGradient id="bg" x2="1" y2="1"><stop stop-color="#091321"/><stop offset="1" stop-color="#152d42"/></linearGradient><radialGradient id="glow"><stop stop-color="#52e0c4" stop-opacity=".2"/><stop offset="1" stop-color="#52e0c4" stop-opacity="0"/></radialGradient></defs><rect width="1200" height="380" rx="18" fill="url(#bg)"/><circle cx="965" cy="190" r="240" fill="url(#glow)"/><circle cx="965" cy="190" r="64" fill="none" stroke="#5bcab7" stroke-opacity=".22" stroke-width="1"/><circle cx="965" cy="190" r="102" fill="none" stroke="#5bcab7" stroke-opacity=".22" stroke-width="1"/><circle cx="965" cy="190" r="142" fill="none" stroke="#5bcab7" stroke-opacity=".22" stroke-width="1"/><circle cx="965" cy="190" r="174" fill="none" stroke="#5bcab7" stroke-opacity=".22" stroke-width="1"/><path d="M1139.0,190.0 L1148.0,190.0" stroke="#7de5d2" stroke-opacity=".4"/><path d="M1137.5,212.7 L1146.4,213.9" stroke="#7de5d2" stroke-opacity=".4"/><path d="M1133.1,235.0 L1141.8,237.4" stroke="#7de5d2" stroke-opacity=".4"/><path d="M1125.8,256.6 L1134.1,260.0" stroke="#7de5d2" stroke-opacity=".4"/><path d="M1115.7,277.0 L1123.5,281.5" stroke="#7de5d2" stroke-opacity=".4"/><path d="M1103.0,295.9 L1110.2,301.4" stroke="#7de5d2" stroke-opacity=".4"/><path d="M1088.0,313.0 L1094.4,319.4" stroke="#7de5d2" stroke-opacity=".4"/><path d="M1070.9,328.0 L1076.4,335.2" stroke="#7de5d2" stroke-opacity=".4"/><path d="M1052.0,340.7 L1056.5,348.5" stroke="#7de5d2" stroke-opacity=".4"/><path d="M1031.6,350.8 L1035.0,359.1" stroke="#7de5d2" stroke-opacity=".4"/><path d="M1010.0,358.1 L1012.4,366.8" stroke="#7de5d2" stroke-opacity=".4"/><path d="M987.7,362.5 L988.9,371.4" stroke="#7de5d2" stroke-opacity=".4"/><path d="M965.0,364.0 L965.0,373.0" stroke="#7de5d2" stroke-opacity=".4"/><path d="M942.3,362.5 L941.1,371.4" stroke="#7de5d2" stroke-opacity=".4"/><path d="M920.0,358.1 L917.6,366.8" stroke="#7de5d2" stroke-opacity=".4"/><path d="M898.4,350.8 L895.0,359.1" stroke="#7de5d2" stroke-opacity=".4"/><path d="M878.0,340.7 L873.5,348.5" stroke="#7de5d2" stroke-opacity=".4"/><path d="M859.1,328.0 L853.6,335.2" stroke="#7de5d2" stroke-opacity=".4"/><path d="M842.0,313.0 L835.6,319.4" stroke="#7de5d2" stroke-opacity=".4"/><path d="M827.0,295.9 L819.8,301.4" stroke="#7de5d2" stroke-opacity=".4"/><path d="M814.3,277.0 L806.5,281.5" stroke="#7de5d2" stroke-opacity=".4"/><path d="M804.2,256.6 L795.9,260.0" stroke="#7de5d2" stroke-opacity=".4"/><path d="M796.9,235.0 L788.2,237.4" stroke="#7de5d2" stroke-opacity=".4"/><path d="M792.5,212.7 L783.6,213.9" stroke="#7de5d2" stroke-opacity=".4"/><path d="M791.0,190.0 L782.0,190.0" stroke="#7de5d2" stroke-opacity=".4"/><path d="M792.5,167.3 L783.6,166.1" stroke="#7de5d2" stroke-opacity=".4"/><path d="M796.9,145.0 L788.2,142.6" stroke="#7de5d2" stroke-opacity=".4"/><path d="M804.2,123.4 L795.9,120.0" stroke="#7de5d2" stroke-opacity=".4"/><path d="M814.3,103.0 L806.5,98.5" stroke="#7de5d2" stroke-opacity=".4"/><path d="M827.0,84.1 L819.8,78.6" stroke="#7de5d2" stroke-opacity=".4"/><path d="M842.0,67.0 L835.6,60.6" stroke="#7de5d2" stroke-opacity=".4"/><path d="M859.1,52.0 L853.6,44.8" stroke="#7de5d2" stroke-opacity=".4"/><path d="M878.0,39.3 L873.5,31.5" stroke="#7de5d2" stroke-opacity=".4"/><path d="M898.4,29.2 L895.0,20.9" stroke="#7de5d2" stroke-opacity=".4"/><path d="M920.0,21.9 L917.6,13.2" stroke="#7de5d2" stroke-opacity=".4"/><path d="M942.3,17.5 L941.1,8.6" stroke="#7de5d2" stroke-opacity=".4"/><path d="M965.0,16.0 L965.0,7.0" stroke="#7de5d2" stroke-opacity=".4"/><path d="M987.7,17.5 L988.9,8.6" stroke="#7de5d2" stroke-opacity=".4"/><path d="M1010.0,21.9 L1012.4,13.2" stroke="#7de5d2" stroke-opacity=".4"/><path d="M1031.6,29.2 L1035.0,20.9" stroke="#7de5d2" stroke-opacity=".4"/><path d="M1052.0,39.3 L1056.5,31.5" stroke="#7de5d2" stroke-opacity=".4"/><path d="M1070.9,52.0 L1076.4,44.8" stroke="#7de5d2" stroke-opacity=".4"/><path d="M1088.0,67.0 L1094.4,60.6" stroke="#7de5d2" stroke-opacity=".4"/><path d="M1103.0,84.1 L1110.2,78.6" stroke="#7de5d2" stroke-opacity=".4"/><path d="M1115.7,103.0 L1123.5,98.5" stroke="#7de5d2" stroke-opacity=".4"/><path d="M1125.8,123.4 L1134.1,120.0" stroke="#7de5d2" stroke-opacity=".4"/><path d="M1133.1,145.0 L1141.8,142.6" stroke="#7de5d2" stroke-opacity=".4"/><path d="M1137.5,167.3 L1146.4,166.1" stroke="#7de5d2" stroke-opacity=".4"/><path d="M965 190 Q1030 88 1146 68" fill="none" stroke="#72e5cb" stroke-width="2.3"/><circle cx="965" cy="190" r="5" fill="#e4fff9"/><path d="M965 190 Q850 105 820 30" fill="none" stroke="#87baff" stroke-width="2.3"/><circle cx="965" cy="190" r="5" fill="#e4fff9"/><path d="M965 190 Q1020 285 1137 316" fill="none" stroke="#72e5cb" stroke-width="2.3"/><circle cx="965" cy="190" r="5" fill="#e4fff9"/><path d="M965 190 Q895 283 838 331" fill="none" stroke="#edbb7d" stroke-width="2.3"/><circle cx="965" cy="190" r="5" fill="#e4fff9"/><path d="M965 190 Q1050 192 1170 159" fill="none" stroke="#87baff" stroke-width="2.3"/><circle cx="965" cy="190" r="5" fill="#e4fff9"/><path d="M965 190 Q884 194 795 256" fill="none" stroke="#72e5cb" stroke-width="2.3"/><circle cx="965" cy="190" r="5" fill="#e4fff9"/><path d="M48 54H94" stroke="#72e5cb" stroke-width="4"/><g font-family="Arial, Helvetica, sans-serif"><text x="48" y="95" font-size="14" letter-spacing="3" fill="#72e5cb">PHYSICS / SCIENTIFIC COMPUTING / ML</text><text x="44" y="172" font-size="66" font-weight="700" fill="#f5f8fc">Sijan Regmi</text><text x="48" y="224" font-size="27" fill="#c5d6e5">From detector signals to scientific insight.</text><text x="48" y="274" font-size="17" fill="#93afc4">PhD in Physics · Ohio University</text><text x="48" y="302" font-size="17" fill="#93afc4">sPHENIX research at Brookhaven National Laboratory</text><text x="48" y="350" font-size="12" letter-spacing="2" fill="#72e5cb">CALIBRATION   /   DATA ANALYSIS   /   MACHINE LEARNING</text></g></svg>